<?xml version="1.0" standalone="no"?>
<!DOCTYPE svg PUBLIC "-//W3C//DTD SVG 1.1//EN" "http://www.w3.org/Graphics/SVG/1.1/DTD/svg11.dtd">
<svg width="1360" height="800" version="1.1" xmlns="http://www.w3.org/2000/svg" xmlns:xlink="http://www.w3.org/1999/xlink"><defs><g id="quarters"><path d=" M440,400 h-358 a358,358 0 0,1 358,-358 v440" style="stroke:none;fill:#fec72e;" transform="rotate(0, 440, 400)"/><path d=" M440,400 h-358 a358,358 0 0,1 358,-358 v440" style="stroke:none;fill:#a9a9a9;" transform="rotate(270, 440, 400)"/><path d=" M440,400 h-358 a358,358 0 0,1 358,-358 v440" style="stroke:none;fill:#ed7320;" transform="rotate(180, 440, 400)"/><path d=" M440,400 h-358 a358,358 0 0,1 358,-358 v440" style="stroke:none;fill:#4d92d3;" transform="rotate(90, 440, 400)"/></g></defs><rect x="932" y="0" width="428" height="800" style="stroke:none;fill:#e7e7e7;"/><rect x="892" y="0" width="8" height="800" style="stroke:none;fill:#c9c9c9;"/><polygon points="0,0 16,12 0,24" style="stroke:none;fill:#c9c9c9;" transform="translate(900, 0)"/><polygon points="0,0 16,12 0,24" style="stroke:none;fill:#c9c9c9;" transform="translate(900, 24)"/><polygon points="0,0 16,12 0,24" style="stroke:none;fill:#c9c9c9;" transform="translate(900, 48)"/><polygon points="0,0 16,12 0,24" style="stroke:none;fill:#c9c9c9;" transform="translate(900, 72)"/><polygon points="0,0 16,12 0,24" style="stroke:none;fill:#c9c9c9;" transform="translate(900, 96)"/><polygon points="0,0 16,12 0,24" style="stroke:none;fill:#c9c9c9;" transform="translate(900, 120)"/><polygon points="0,0 16,12 0,24" style="stroke:none;fill:#c9c9c9;" transform="translate(900, 144)"/><polygon points="0,0 16,12 0,24" style="stroke:none;fill:#c9c9c9;" transform="translate(900, 168)"/><polygon points="0,0 16,12 0,24" style="stroke:none;fill:#c9c9c9;" transform="translate(900, 300)"/><polygon points="0,0 16,12 0,24" style="stroke:none;fill:#c9c9c9;" transform="translate(900, 324)"/><polygon points="0,0 16,12 0,24" style="stroke:none;fill:#c9c9c9;" transform="translate(900, 348)"/><polygon points="0,0 16,12 0,24" style="stroke:none;fill:#c9c9c9;" transform="translate(900, 372)"/><polygon points="0,0 16,12 0,24" style="stroke:none;fill:#c9c9c9;" transform="translate(900, 396)"/><polygon points="0,0 16,12 0,24" style="stroke:none;fill:#c9c9c9;" transform="translate(900, 420)"/><polygon points="0,0 16,12 0,24" style="stroke:none;fill:#c9c9c9;" transform="translate(900, 444)"/><polygon points="0,0 16,12 0,24" style="stroke:none;fill:#c9c9c9;" transform="translate(900, 468)"/><polygon points="0,0 16,12 0,24" style="stroke:none;fill:#c9c9c9;" transform="translate(900, 776)"/><polygon points="0,0 16,12 0,24" style="stroke:none;fill:#c9c9c9;" transform="translate(900, 752)"/><polygon points="0,0 16,12 0,24" style="stroke:none;fill:#c9c9c9;" transform="translate(900, 728)"/><polygon points="0,0 16,12 0,24" style="stroke:none;fill:#c9c9c9;" transform="translate(900, 704)"/><polygon points="0,0 16,12 0,24" style="stroke:none;fill:#c9c9c9;" transform="translate(900, 680)"/><polygon points="0,0 16,12 0,24" style="stroke:none;fill:#c9c9c9;" transform="translate(900, 656)"/><polygon points="0,0 16,12 0,24" style="stroke:none;fill:#c9c9c9;" transform="translate(900, 632)"/><polygon points="0,0 16,12 0,24" style="stroke:none;fill:#c9c9c9;" transform="translate(900, 608)"/><polygon points="0,0 16,12 0,24" style="stroke:none;fill:#e7e7e7;" transform="translate(932, 36)rotate(180)"/><polygon points="0,0 16,12 0,24" style="stroke:none;fill:#e7e7e7;" transform="translate(932, 60)rotate(180)"/><polygon points="0,0 16,12 0,24" style="stroke:none;fill:#e7e7e7;" transform="translate(932, 84)rotate(180)"/><polygon points="0,0 16,12 0,24" style="stroke:none;fill:#e7e7e7;" transform="translate(932, 108)rotate(180)"/><polygon points="0,0 16,12 0,24" style="stroke:none;fill:#e7e7e7;" transform="translate(932, 132)rotate(180)"/><polygon points="0,0 16,12 0,24" style="stroke:none;fill:#e7e7e7;" transform="translate(932, 156)rotate(180)"/><polygon points="0,0 16,12 0,24" style="stroke:none;fill:#e7e7e7;" transform="translate(932, 180)rotate(180)"/><polygon points="0,0 16,12 0,24" style="stroke:none;fill:#e7e7e7;" transform="translate(932, 336)rotate(180)"/><polygon points="0,0 16,12 0,24" style="stroke:none;fill:#e7e7e7;" transform="translate(932, 360)rotate(180)"/><polygon points="0,0 16,12 0,24" style="stroke:none;fill:#e7e7e7;" transform="translate(932, 384)rotate(180)"/><polygon points="0,0 16,12 0,24" style="stroke:none;fill:#e7e7e7;" transform="translate(932, 408)rotate(180)"/><polygon points="0,0 16,12 0,24" style="stroke:none;fill:#e7e7e7;" transform="translate(932, 432)rotate(180)"/><polygon points="0,0 16,12 0,24" style="stroke:none;fill:#e7e7e7;" transform="translate(932, 456)rotate(180)"/><polygon points="0,0 16,12 0,24" style="stroke:none;fill:#e7e7e7;" transform="translate(932, 480)rotate(180)"/><polygon points="0,0 16,12 0,24" style="stroke:none;fill:#e7e7e7;" transform="translate(932, 788)rotate(180)"/><polygon points="0,0 16,12 0,24" style="stroke:none;fill:#e7e7e7;" transform="translate(932, 764)rotate(180)"/><polygon points="0,0 16,12 0,24" style="stroke:none;fill:#e7e7e7;" transform="translate(932, 740)rotate(180)"/><polygon points="0,0 16,12 0,24" style="stroke:none;fill:#e7e7e7;" transform="translate(932, 716)rotate(180)"/><polygon points="0,0 16,12 0,24" style="stroke:none;fill:#e7e7e7;" transform="translate(932, 692)rotate(180)"/><polygon points="0,0 16,12 0,24" style="stroke:none;fill:#e7e7e7;" transform="translate(932, 668)rotate(180)"/><polygon points="0,0 16,12 0,24" style="stroke:none;fill:#e7e7e7;" transform="translate(932, 644)rotate(180)"/><use xlink:href="#quarters"/><use xlink:href="#quarters" style="fill-opacity:0.5;" transform="translate(948, 80)scale(0.45, 0.45)"/><use xlink:href="#quarters" style="fill-opacity:0.5;" transform="translate(948, 440)scale(0.45, 0.45)"/><rect x="0" y="0" width="48" height="800" style="stroke:none;fill:#c9c9c9;"/><rect x="52" y="0" width="6" height="400" style="stroke:none;fill:#fec72e;"/><rect x="52" y="400" width="6" height="800" style="stroke:none;fill:#a9a9a9;"/><text x="40" y="400" text-anchor="middle" font-family="sans" font-size="48" style="fill:white;" transform="rotate(-90, 40, 400)">Personale Kompetenz</text><text x="64" y="56" font-family="sans" font-size="32" style="fill:black;">Sozialkompetenz</text><text x="64" y="768" font-family="sans" font-size="32" style="fill:black;">Selbstständigkeit</text><rect x="840" y="0" width="48" height="800" style="stroke:none;fill:#c9c9c9;"/><rect x="829" y="0" width="6" height="400" style="stroke:none;fill:#4d92d3;"/><rect x="829" y="400" width="6" height="800" style="stroke:none;fill:#ed7320;"/><text x="880" y="400" text-anchor="middle" font-family="sans" font-size="48" style="fill:white;" transform="rotate(-90, 880, 400)">Fachkompetenz</text><text x="816" y="768" text-anchor="end" font-family="sans" font-size="32" style="fill:black;">Fertigkeiten</text><text x="816" y="56" text-anchor="end" font-family="sans" font-size="32" style="fill:black;">Wissen</text><circle cx="440" cy="400" r="40" style="stroke:white;stroke-width:3;fill:none;"/><circle cx="440" cy="400" r="100" style="stroke:white;stroke-width:3;fill:none;"/><circle cx="440" cy="400" r="160" style="stroke:white;stroke-width:3;fill:none;"/><circle cx="440" cy="400" r="220" style="stroke:white;stroke-width:3;fill:none;"/><circle cx="440" cy="400" r="280" style="stroke:white;stroke-width:3;fill:none;"/><circle cx="440" cy="400" r="340" style="stroke:white;stroke-width:3;fill:none;"/><line x1="84" y1="400" x2="416" y2="400" style="stroke:white;stroke-width:3;" transform="rotate(45, 440, 400)"/><line x1="84" y1="400" x2="416" y2="400" style="stroke:white;stroke-width:3;" transform="rotate(90, 440, 400)"/><line x1="84" y1="400" x2="416" y2="400" style="stroke:white;stroke-width:3;" transform="rotate(135, 440, 400)"/><line x1="84" y1="400" x2="416" y2="400" style="stroke:white;stroke-width:3;" transform="rotate(180, 440, 400)"/><line x1="84" y1="400" x2="416" y2="400" style="stroke:white;stroke-width:3;" transform="rotate(225, 440, 400)"/><line x1="84" y1="400" x2="416" y2="400" style="stroke:white;stroke-width:3;" transform="rotate(270, 440, 400)"/><line x1="84" y1="400" x2="416" y2="400" style="stroke:white;stroke-width:3;" transform="rotate(315, 440, 400)"/><line x1="84" y1="400" x2="416" y2="400" style="stroke:white;stroke-width:3;" transform="rotate(360, 440, 400)"/><circle cx="680" cy="160" r="16" style="stroke:white;stroke-width:3;fill:gray;"/><text x="680" y="160" dominant-baseline="central" text-anchor="middle" font-family="sans" font-size="20" style="fill:white;">1</text><circle cx="637" cy="203" r="16" style="stroke:white;stroke-width:3;fill:gray;"/><text x="637" y="203" dominant-baseline="central" text-anchor="middle" font-family="sans" font-size="20" style="fill:white;">2</text><circle cx="595" cy="245" r="16" style="stroke:white;stroke-width:3;fill:gray;"/><text x="595" y="245" dominant-baseline="central" text-anchor="middle" font-family="sans" font-size="20" style="fill:white;">3</text><circle cx="553" cy="287" r="16" style="stroke:white;stroke-width:3;fill:gray;"/><text x="553" y="287" dominant-baseline="central" text-anchor="middle" font-family="sans" font-size="20" style="fill:white;">4</text><circle cx="510" cy="330" r="16" style="stroke:white;stroke-width:3;fill:gray;"/><text x="510" y="330" dominant-baseline="central" text-anchor="middle" font-family="sans" font-size="20" style="fill:white;">5</text><circle cx="468" cy="372" r="16" style="stroke:white;stroke-width:3;fill:gray;"/><text x="468" y="372" dominant-baseline="central" text-anchor="middle" font-family="sans" font-size="20" style="fill:white;">6</text><polygon points="285,245 285,555 595,555 595,245" style="stroke:#FFFFFF;stroke-width:8;fill:#FFFFFF;fill-opacity:0.9;"/><polygon points="285,245 285,555 595,555 595,245" style="stroke:#FFFFFF;stroke-width:0;fill:#FFFFFF;fill-opacity:0.8;" transform="translate(948, 80)scale(0.45, 0.45)"/><circle cx="285" cy="245" r="32" style="stroke:none;fill:#d9d9d9;"/><circle cx="285" cy="245" r="28" style="stroke:none;fill:#FFFFFF;"/><circle cx="285" cy="245" r="22" style="stroke:none;fill:#f1f1f1;"/><text x="285" y="245" dominant-baseline="central" text-anchor="middle" font-family="sans" font-size="32" style="fill-opacity:0.8;fill:black;">3</text><circle cx="285" cy="555" r="32" style="stroke:none;fill:#d9d9d9;"/><circle cx="285" cy="555" r="28" style="stroke:none;fill:#FFFFFF;"/><circle cx="285" cy="555" r="22" style="stroke:none;fill:#f1f1f1;"/><text x="285" y="555" dominant-baseline="central" text-anchor="middle" font-family="sans" font-size="32" style="fill-opacity:0.8;fill:black;">3</text><circle cx="595" cy="555" r="32" style="stroke:none;fill:#d9d9d9;"/><circle cx="595" cy="555" r="28" style="stroke:none;fill:#FFFFFF;"/><circle cx="595" cy="555" r="22" style="stroke:none;fill:#f1f1f1;"/><text x="595" y="555" dominant-baseline="central" text-anchor="middle" font-family="sans" font-size="32" style="fill-opacity:0.8;fill:black;">3</text><circle cx="595" cy="245" r="32" style="stroke:none;fill:#d9d9d9;"/><circle cx="595" cy="245" r="28" style="stroke:none;fill:#FFFFFF;"/><circle cx="595" cy="245" r="22" style="stroke:none;fill:#f1f1f1;"/><text x="595" y="245" dominant-baseline="central" text-anchor="middle" font-family="sans" font-size="32" style="fill-opacity:0.8;fill:black;">3</text><polygon points="285,245 285,555 595,555 595,245" style="stroke:#508A05;stroke-width:8;fill:#508A05;fill-opacity:0.6;"/><polygon points="285,245 285,555 595,555 595,245" style="stroke:#508A05;stroke-width:0;fill:#508A05;fill-opacity:0.8;" transform="translate(948, 440)scale(0.45, 0.45)"/><circle cx="285" cy="245" r="32" style="stroke:none;fill:#d9d9d9;"/><circle cx="285" cy="245" r="28" style="stroke:none;fill:#508A05;"/><circle cx="285" cy="245" r="22" style="stroke:none;fill:#f1f1f1;"/><text x="285" y="245" dominant-baseline="central" text-anchor="middle" font-family="sans" font-size="32" style="fill-opacity:0.8;fill:black;">3</text><circle cx="285" cy="555" r="32" style="stroke:none;fill:#d9d9d9;"/><circle cx="285" cy="555" r="28" style="stroke:none;fill:#508A05;"/><circle cx="285" cy="555" r="22" style="stroke:none;fill:#f1f1f1;"/><text x="285" y="555" dominant-baseline="central" text-anchor="middle" font-family="sans" font-size="32" style="fill-opacity:0.8;fill:black;">3</text><circle cx="595" cy="555" r="32" style="stroke:none;fill:#d9d9d9;"/><circle cx="595" cy="555" r="28" style="stroke:none;fill:#508A05;"/><circle cx="595" cy="555" r="22" style="stroke:none;fill:#f1f1f1;"/><text x="595" y="555" dominant-baseline="central" text-anchor="middle" font-family="sans" font-size="32" style="fill-opacity:0.8;fill:black;">3</text><circle cx="595" cy="245" r="32" style="stroke:none;fill:#d9d9d9;"/><circle cx="595" cy="245" r="28" style="stroke:none;fill:#508A05;"/><circle cx="595" cy="245" r="22" style="stroke:none;fill:#f1f1f1;"/><text x="595" y="245" dominant-baseline="central" text-anchor="middle" font-family="sans" font-size="32" style="fill-opacity:0.8;fill:black;">3</text><rect x="992" y="16" width="304" height="56" style="stroke:none;fill:white;"/><text x="1008" y="40" font-family="sans" font-size="19" style="fill:black;">Mathematik</text><text x="1008" y="64" font-family="sans" font-size="19" style="fill:black;">Kosak-Miguel, REK</text><rect x="992" y="96" width="304" height="40" style="stroke:none;fill:white;"/><text x="1008" y="124" font-family="sans" font-size="19" style="fill:black;">Selbstbewertung</text><circle cx="1145" cy="260" r="38" style="stroke:none;fill:white;"/><text x="1145" y="260" dominant-baseline="central" text-anchor="middle" font-family="sans" font-size="32" style="fill:black;">3.0</text><rect x="992" y="455" width="304" height="40" style="stroke:none;fill:white;"/><text x="1008" y="484" font-family="sans" font-size="19" style="fill:black;">Fremdbewertung</text><circle cx="1145" cy="620" r="38" style="stroke:none;fill:white;"/><text x="1145" y="620" dominant-baseline="central" text-anchor="middle" font-family="sans" font-size="32" style="fill:black;">3.0</text></svg>